<?xml version="1.0" encoding="UTF-8" standalone="no"?>
<svg
   version="1.1"
   id="Layer_1"
   x="0px"
   y="0px"
   viewBox="0 0 122.88 122.88"
   style="enable-background:new 0 0 122.88 122.88"
   xml:space="preserve"
   sodipodi:docname="logo.svg"
   inkscape:version="1.3.2 (091e20e, 2023-11-25, custom)"
   xmlns:inkscape="http://www.inkscape.org/namespaces/inkscape"
   xmlns:sodipodi="http://sodipodi.sourceforge.net/DTD/sodipodi-0.dtd"
   xmlns="http://www.w3.org/2000/svg"
   xmlns:svg="http://www.w3.org/2000/svg"><defs
     id="defs1" /><sodipodi:namedview
     id="namedview1"
     pagecolor="#505050"
     bordercolor="#eeeeee"
     borderopacity="1"
     inkscape:showpageshadow="0"
     inkscape:pageopacity="0"
     inkscape:pagecheckerboard="0"
     inkscape:deskcolor="#505050"
     inkscape:zoom="4.6783678"
     inkscape:cx="71.178671"
     inkscape:cy="55.681813"
     inkscape:window-width="1920"
     inkscape:window-height="1009"
     inkscape:window-x="-8"
     inkscape:window-y="-8"
     inkscape:window-maximized="1"
     inkscape:current-layer="Layer_1" /><style
     type="text/css"
     id="style1">.st0{fill-rule:evenodd;clip-rule:evenodd;}</style><style
     type="text/css"
     id="style1-1">.st0{fill-rule:evenodd;clip-rule:evenodd;}</style><g
     id="g1"
     transform="matrix(0.85173658,0,0,0.85173658,0,7.385)"
     style="fill:#000000" /><path
     id="path1-5"
     style="fill:#000000;fill-opacity:1;fill-rule:evenodd;stroke:#ffffff;stroke-width:1.96523;stroke-dasharray:none;stroke-opacity:1"
     class="st0"
     d="m 105.10716,73.594753 h 5.21742 v 1.740764 c 13.06021,2.982255 14.55137,9.239661 6.97879,19.098407 0.80729,-9.782196 -0.18015,-11.882415 -6.97879,-12.335083 v 24.733419 c 0.0133,0.1298 0.0166,0.25961 0.0166,0.39608 0,3.21524 -3.37931,6.40386 -7.54923,7.12279 -4.166598,0.71562 -7.549245,-1.30806 -7.549245,-4.52331 0,-4.38684 6.038055,-8.19122 9.864385,-6.84986 z M 52.478958,8.385 c 28.429055,0 51.478962,22.997852 51.478962,51.362705 0,28.364854 -23.049907,51.362705 -51.478962,51.362705 C 24.049904,111.11041 1,88.112559 1,59.747705 1,31.382852 24.049904,8.385 52.478958,8.385 Z m 0,47.358353 c 2.220365,0 4.013416,1.797361 4.013416,4.004352 0,2.206991 -1.793051,4.004352 -4.013416,4.004352 -2.211986,0 -4.013415,-1.789001 -4.013415,-4.004352 0,-2.206991 1.801429,-4.004352 4.013415,-4.004352 z m 0,-12.255489 c 8.998764,0 16.296644,7.2814 16.296644,16.259841 0,8.978442 -7.29788,16.259841 -16.296644,16.259841 -8.998762,0 -16.288264,-7.281399 -16.288264,-16.259841 0,-8.978441 7.289502,-16.259841 16.288264,-16.259841 z M 12.386703,50.142277 C 15.076278,42.961196 19.341055,36.557578 24.762097,31.349413 30.174762,26.149607 36.743691,22.128536 44.033192,19.72091 l 1.307083,3.945833 C 38.637285,25.882094 32.612974,29.568772 27.644383,34.342227 22.659035,39.1324 18.746165,45.009351 16.282816,51.588525 Z m 13.012178,3.034613 c 1.684127,-4.50594 4.365322,-8.535372 7.767089,-11.804059 3.401768,-3.268688 7.524106,-5.793352 12.107275,-7.298119 l 1.298705,3.945833 c -3.98828,1.320851 -7.566,3.511122 -10.523694,6.3451 -2.966073,2.850697 -5.295362,6.3451 -6.761641,10.257493 z M 79.99473,65.683174 c -1.684126,4.50594 -4.365322,8.535372 -7.767089,11.80406 -3.401767,3.268687 -7.524106,5.793351 -12.107275,7.298118 l -1.298704,-3.945833 c 3.988279,-1.32085 7.574378,-3.502763 10.523694,-6.345099 2.966072,-2.850698 5.295361,-6.345101 6.76164,-10.257494 z m 13.012178,3.034613 C 90.317333,75.890509 86.052557,82.294127 80.631515,87.510652 75.21885,92.718817 68.64992,96.731528 61.360419,99.139155 l -1.307083,-3.945833 c 6.70299,-2.21535 12.727302,-5.90203 17.695893,-10.675484 4.985348,-4.790174 8.898218,-10.667124 11.361567,-17.246299 z" /></svg>
