<?xml version="1.0" encoding="UTF-8" standalone="no"?>
<svg
   shape-rendering="geometricPrecision"
   text-rendering="geometricPrecision"
   image-rendering="optimizeQuality"
   fill-rule="evenodd"
   clip-rule="evenodd"
   viewBox="0 0 443 511.62"
   version="1.1"
   id="svg1"
   sodipodi:docname="time.svg"
   inkscape:version="1.3.2 (091e20e, 2023-11-25, custom)"
   xml:space="preserve"
   xmlns:inkscape="http://www.inkscape.org/namespaces/inkscape"
   xmlns:sodipodi="http://sodipodi.sourceforge.net/DTD/sodipodi-0.dtd"
   xmlns="http://www.w3.org/2000/svg"
   xmlns:svg="http://www.w3.org/2000/svg"><defs
     id="defs1" /><sodipodi:namedview
     id="namedview1"
     pagecolor="#505050"
     bordercolor="#eeeeee"
     borderopacity="1"
     inkscape:showpageshadow="0"
     inkscape:pageopacity="0"
     inkscape:pagecheckerboard="0"
     inkscape:deskcolor="#505050"
     inkscape:zoom="1.1236422"
     inkscape:cx="243.84987"
     inkscape:cy="194.45692"
     inkscape:window-width="1920"
     inkscape:window-height="1009"
     inkscape:window-x="-8"
     inkscape:window-y="-8"
     inkscape:window-maximized="1"
     inkscape:current-layer="svg1" /><path
     fill-rule="nonzero"
     d="m 290.07045,224.64846 c 0,-17.1 13.87,-30.97 30.97,-30.97 17.11,0 30.98,13.87 30.98,30.97 v 177.4 l 37.45,-40.31 c 11.63,-12.5 31.19,-13.2 43.68,-1.57 12.49,11.62 13.19,31.18 1.57,43.68 l -91.05,97.98 -2.06,1.94 c -12.69,11.35 -32.2,10.26 -43.55,-2.43 l -91.05,-101.47 c -11.35,-12.69 -10.26,-32.2 2.43,-43.55 12.68,-11.36 32.19,-10.27 43.55,2.42 l 37.08,41.33 z m -236.239996,-71.77 c -11.35,12.69 -30.86,13.78 -43.55,2.43 -12.6899996,-11.36 -13.7799996,-30.87 -2.4199996,-43.56 L 98.900454,10.278456 C 110.26045,-2.4115442 129.77045,-3.5015442 142.45045,7.8584558 l 2.02,1.97 91.09,97.9500042 c 11.63,12.49 10.93,32.05 -1.57,43.67 -12.49,11.63 -32.05,10.93 -43.67,-1.57 l -37.46,-40.31 v 170.52 c 0,17.11 -13.87,30.97 -30.97,30.97 -17.1,0 -30.969996,-13.86 -30.969996,-30.97 v -168.54 z"
     id="path1"
     style="fill:#ffffff" /><style
     type="text/css"
     id="style1">.st0{fill-rule:evenodd;clip-rule:evenodd;}</style><style
     type="text/css"
     id="style1-7">.st0{fill-rule:evenodd;clip-rule:evenodd;}</style><path
     id="path1-2"
     style="fill:#ffffff;fill-opacity:1;fill-rule:evenodd;stroke:none;stroke-width:1.20871;stroke-opacity:1"
     d="m 352.50593,19.229821 c -11.7186,0.06446 -23.44114,-0.01956 -35.15982,0.04478 -4.14158,0.214448 -7.54786,4.269542 -7.12782,8.381679 0.0859,2.928691 -0.50151,6.196252 1.32362,8.743397 1.64224,2.441677 4.68175,3.713634 7.57995,3.399504 1.98635,0 3.9727,0 5.95904,0 -0.0192,1.420067 0.0382,2.910631 -0.0283,4.287153 -10.12431,1.378872 -19.9149,5.123957 -28.37405,10.854805 -2.05634,-1.874409 -3.96123,-3.9453 -6.20128,-5.599728 -3.40535,-2.170918 -8.31224,-1.253887 -10.76942,1.933633 -1.69482,1.910202 -3.80394,3.53779 -5.00343,5.830148 -1.65625,3.387876 -0.55552,7.784755 2.43154,10.062798 1.12614,1.058264 2.25228,2.116528 3.37842,3.174792 -9.505,12.623596 -14.26994,28.701203 -13.19331,44.465878 0.94109,15.02173 7.14533,29.64883 17.32131,40.74348 10.91149,12.02337 26.31263,19.89683 42.48408,21.51514 15.2146,1.62483 30.95952,-2.12017 43.73907,-10.55688 14.04971,-9.178 24.47164,-23.78355 28.40202,-40.11554 4.08576,-16.60449 1.56426,-34.769156 -7.1135,-49.529145 -0.99055,-1.770611 -2.1923,-3.49464 -3.27576,-5.153689 1.64696,-1.771432 3.50602,-3.389965 4.84902,-5.413237 1.96804,-3.407633 1.00208,-8.096379 -2.08237,-10.514945 -1.91634,-1.72287 -3.53383,-3.8909 -5.87364,-5.065289 -3.37959,-1.616561 -7.72324,-0.506209 -10.006,2.441699 -0.89839,0.903863 -1.76176,1.890467 -2.66165,2.760604 -8.14759,-5.817319 -17.60729,-9.784794 -27.4746,-11.487491 0,-1.547089 0,-3.094178 0,-4.641268 2.8521,-0.02698 5.72186,0.125737 8.56205,-0.132166 3.89218,-0.630418 6.753,-4.612746 6.29776,-8.497757 -0.0544,-2.895043 0.46599,-6.134342 -1.39164,-8.620198 -1.48795,-2.087893 -4.02529,-3.375912 -6.59126,-3.312157 z m -18.32662,45.576962 c 10.73278,-0.0288 21.43115,3.864356 29.56322,10.883583 8.74043,7.366367 14.53101,18.12554 15.77434,29.495994 0.28383,2.36602 0.3574,5.0177 0.263,7.23472 -0.41295,10.93225 -4.97896,21.62208 -12.56374,29.50191 -7.81699,8.29772 -18.85586,13.43972 -30.23858,14.07545 -11.23475,0.72839 -22.69614,-2.87789 -31.41627,-10.01581 -8.07374,-6.45611 -13.82724,-15.7297 -15.98413,-25.84318 -0.42897,-1.89017 -0.73232,-4.08763 -0.88038,-5.84392 -0.94305,-11.15517 2.32459,-22.634553 9.18185,-31.50673 7.5646,-9.979819 19.37794,-16.633191 31.86616,-17.762704 1.4731,-0.149029 2.95433,-0.208545 4.43453,-0.219313 z m -0.10383,18.033897 c -2.17264,0.140859 -4.37978,-0.178139 -6.53225,0.198305 -3.14592,0.752544 -5.39668,4.005 -5.02371,7.213092 0,11.687833 0,23.375673 0,35.063513 10.25698,-0.0186 20.51845,0.0473 30.7726,-0.0426 3.51293,-0.32871 6.24021,-3.85857 5.82126,-7.33578 -0.1187,-2.45683 0.40875,-5.07974 -0.6441,-7.39303 -1.22111,-2.59251 -4.20139,-4.06841 -7.01053,-3.73474 -3.47931,0 -6.9586,0 -10.4379,0 -0.023,-6.09011 0.0694,-12.185983 -0.0637,-18.272334 -0.38739,-3.309806 -3.5932,-5.849988 -6.88163,-5.696525 z" /></svg>
