<?xml version="1.0" encoding="UTF-8" standalone="no"?>
<svg
   shape-rendering="geometricPrecision"
   text-rendering="geometricPrecision"
   image-rendering="optimizeQuality"
   fill-rule="evenodd"
   clip-rule="evenodd"
   viewBox="0 0 443 511.62"
   version="1.1"
   id="svg1"
   sodipodi:docname="name.svg"
   inkscape:version="1.3.2 (091e20e, 2023-11-25, custom)"
   xmlns:inkscape="http://www.inkscape.org/namespaces/inkscape"
   xmlns:sodipodi="http://sodipodi.sourceforge.net/DTD/sodipodi-0.dtd"
   xmlns="http://www.w3.org/2000/svg"
   xmlns:svg="http://www.w3.org/2000/svg">
  <defs
     id="defs1" />
  <sodipodi:namedview
     id="namedview1"
     pagecolor="#505050"
     bordercolor="#eeeeee"
     borderopacity="1"
     inkscape:showpageshadow="0"
     inkscape:pageopacity="0"
     inkscape:pagecheckerboard="0"
     inkscape:deskcolor="#505050"
     inkscape:zoom="1.58907"
     inkscape:cx="316.53735"
     inkscape:cy="247.62912"
     inkscape:window-width="1920"
     inkscape:window-height="1009"
     inkscape:window-x="-8"
     inkscape:window-y="-8"
     inkscape:window-maximized="1"
     inkscape:current-layer="svg1" />
  <path
     fill-rule="nonzero"
     d="m 290.07045,224.64846 c 0,-17.1 13.87,-30.97 30.97,-30.97 17.11,0 30.98,13.87 30.98,30.97 v 177.4 l 37.45,-40.31 c 11.63,-12.5 31.19,-13.2 43.68,-1.57 12.49,11.62 13.19,31.18 1.57,43.68 l -91.05,97.98 -2.06,1.94 c -12.69,11.35 -32.2,10.26 -43.55,-2.43 l -91.05,-101.47 c -11.35,-12.69 -10.26,-32.2 2.43,-43.55 12.68,-11.36 32.19,-10.27 43.55,2.42 l 37.08,41.33 z m -236.239996,-71.77 c -11.35,12.69 -30.86,13.78 -43.55,2.43 -12.6899996,-11.36 -13.7799996,-30.87 -2.4199996,-43.56 L 98.900454,10.278456 C 110.26045,-2.4115442 129.77045,-3.5015442 142.45045,7.8584558 l 2.02,1.97 91.09,97.9500042 c 11.63,12.49 10.93,32.05 -1.57,43.67 -12.49,11.63 -32.05,10.93 -43.67,-1.57 l -37.46,-40.31 v 170.52 c 0,17.11 -13.87,30.97 -30.97,30.97 -17.1,0 -30.969996,-13.86 -30.969996,-30.97 v -168.54 z"
     id="path1"
     style="fill:#ffffff" />
  <text
     xml:space="preserve"
     style="font-style:normal;font-variant:normal;font-weight:bold;font-stretch:normal;font-size:200px;font-family:Bahnschrift;-inkscape-font-specification:'Bahnschrift Bold';fill:#ffffff;fill-rule:evenodd;stroke-width:0"
     x="260.67422"
     y="170.41655"
     id="text1"><tspan
       sodipodi:role="line"
       id="tspan1"
       x="260.67422"
       y="170.41655"
       style="font-style:normal;font-variant:normal;font-weight:bold;font-stretch:normal;font-size:200px;font-family:Calibri;-inkscape-font-specification:'Calibri Bold';fill:#ffffff">A</tspan></text>
  <text
     xml:space="preserve"
     style="font-style:normal;font-variant:normal;font-weight:bold;font-stretch:normal;font-size:200px;font-family:Bahnschrift;-inkscape-font-specification:'Bahnschrift Bold';fill:#ffffff;fill-rule:evenodd;stroke-width:0"
     x="70.86499"
     y="476.27689"
     id="text1-2"><tspan
       sodipodi:role="line"
       id="tspan1-6"
       x="70.86499"
       y="476.27689"
       style="font-style:normal;font-variant:normal;font-weight:bold;font-stretch:normal;font-size:200px;font-family:Calibri;-inkscape-font-specification:'Calibri Bold';fill:#ffffff">Z</tspan></text>
</svg>
