<?xml version="1.0" encoding="UTF-8" standalone="no"?>
<svg
   version="1.1"
   id="Layer_1"
   x="0px"
   y="0px"
   viewBox="0 0 122.88 122.88"
   style="enable-background:new 0 0 122.88 122.88"
   xml:space="preserve"
   sodipodi:docname="cover.svg"
   inkscape:version="1.3.2 (091e20e, 2023-11-25, custom)"
   xmlns:inkscape="http://www.inkscape.org/namespaces/inkscape"
   xmlns:sodipodi="http://sodipodi.sourceforge.net/DTD/sodipodi-0.dtd"
   xmlns="http://www.w3.org/2000/svg"
   xmlns:svg="http://www.w3.org/2000/svg"><defs
     id="defs1" /><sodipodi:namedview
     id="namedview1"
     pagecolor="#505050"
     bordercolor="#eeeeee"
     borderopacity="1"
     inkscape:showpageshadow="0"
     inkscape:pageopacity="0"
     inkscape:pagecheckerboard="0"
     inkscape:deskcolor="#505050"
     inkscape:zoom="3.3081055"
     inkscape:cx="87.663468"
     inkscape:cy="56.376678"
     inkscape:window-width="1920"
     inkscape:window-height="1009"
     inkscape:window-x="-8"
     inkscape:window-y="-8"
     inkscape:window-maximized="1"
     inkscape:current-layer="Layer_1" /><style
     type="text/css"
     id="style1">.st0{fill-rule:evenodd;clip-rule:evenodd;}</style><g
     id="g1"
     style="fill:#ffffff;fill-opacity:1;stroke:none;fill-rule:evenodd;stroke-width:0;stroke-dasharray:none"
     transform="matrix(0.83723958,0,0,0.83723958,10,10)"><path
       class="st0"
       d="m 61.44,0 c 33.93,0 61.44,27.51 61.44,61.44 0,33.93 -27.51,61.44 -61.44,61.44 C 27.51,122.88 0,95.37 0,61.44 0,27.51 27.51,0 61.44,0 Z m 0,56.65 c 2.65,0 4.79,2.15 4.79,4.79 0,2.64 -2.14,4.79 -4.79,4.79 -2.64,0 -4.79,-2.14 -4.79,-4.79 0,-2.64 2.15,-4.79 4.79,-4.79 z m 0,-14.66 c 10.74,0 19.45,8.71 19.45,19.45 0,10.74 -8.71,19.45 -19.45,19.45 C 50.7,80.89 42,72.18 42,61.44 42,50.7 50.7,41.99 61.44,41.99 Z m -47.85,7.96 c 3.21,-8.59 8.3,-16.25 14.77,-22.48 6.46,-6.22 14.3,-11.03 23,-13.91 l 1.56,4.72 c -8,2.65 -15.19,7.06 -21.12,12.77 -5.95,5.73 -10.62,12.76 -13.56,20.63 z m 15.53,3.63 c 2.01,-5.39 5.21,-10.21 9.27,-14.12 4.06,-3.91 8.98,-6.93 14.45,-8.73 l 1.55,4.72 c -4.76,1.58 -9.03,4.2 -12.56,7.59 -3.54,3.41 -6.32,7.59 -8.07,12.27 z m 65.16,14.96 c -2.01,5.39 -5.21,10.21 -9.27,14.12 -4.06,3.91 -8.98,6.93 -14.45,8.73 l -1.55,-4.72 c 4.76,-1.58 9.04,-4.19 12.56,-7.59 3.54,-3.41 6.32,-7.59 8.07,-12.27 z m 15.53,3.63 c -3.21,8.58 -8.3,16.24 -14.77,22.48 -6.46,6.23 -14.3,11.03 -23,13.91 l -1.56,-4.72 c 8,-2.65 15.19,-7.06 21.12,-12.77 5.95,-5.73 10.62,-12.76 13.56,-20.63 z"
       id="path1"
       style="fill:#ffffff;fill-opacity:1;stroke:none;fill-rule:evenodd;stroke-width:0;stroke-dasharray:none" /></g><rect
     style="fill:none;fill-rule:evenodd;stroke:#ffffff;stroke-width:4.79655;stroke-dasharray:none;stroke-opacity:1"
     id="rect1"
     width="117.88"
     height="117.88"
     x="2.5"
     y="2.5"
     ry="9.5930996" /></svg>
