<?xml version="1.0" encoding="UTF-8" standalone="no"?>
<svg
   version="1.1"
   id="Layer_1"
   x="0px"
   y="0px"
   viewBox="0 0 122.88 122.88"
   style="enable-background:new 0 0 122.88 122.88"
   xml:space="preserve"
   sodipodi:docname="autoplay.svg"
   inkscape:version="1.3.2 (091e20e, 2023-11-25, custom)"
   xmlns:inkscape="http://www.inkscape.org/namespaces/inkscape"
   xmlns:sodipodi="http://sodipodi.sourceforge.net/DTD/sodipodi-0.dtd"
   xmlns="http://www.w3.org/2000/svg"
   xmlns:svg="http://www.w3.org/2000/svg"><defs
     id="defs1"><inkscape:path-effect
       effect="fillet_chamfer"
       id="path-effect1"
       is_visible="true"
       lpeversion="1"
       nodesatellites_param="F,0,0,1,0,10,0,1 @ F,0,0,1,0,10,0,1 @ F,0,0,1,0,10,0,1"
       radius="10"
       unit="px"
       method="auto"
       mode="F"
       chamfer_steps="1"
       flexible="false"
       use_knot_distance="true"
       apply_no_radius="true"
       apply_with_radius="true"
       only_selected="false"
       hide_knots="false" /></defs><sodipodi:namedview
     id="namedview1"
     pagecolor="#505050"
     bordercolor="#eeeeee"
     borderopacity="1"
     inkscape:showpageshadow="0"
     inkscape:pageopacity="0"
     inkscape:pagecheckerboard="0"
     inkscape:deskcolor="#505050"
     inkscape:zoom="4.6783677"
     inkscape:cx="100.88989"
     inkscape:cy="65.086804"
     inkscape:window-width="1920"
     inkscape:window-height="1009"
     inkscape:window-x="-8"
     inkscape:window-y="-8"
     inkscape:window-maximized="1"
     inkscape:current-layer="Layer_1" /><style
     type="text/css"
     id="style1">.st0{fill-rule:evenodd;clip-rule:evenodd;}</style><g
     id="g1"
     style="fill:#000000"
     transform="matrix(1.0696318,0,0,1.0696318,-4.2785273,-4.2785273)" /><style
     type="text/css"
     id="style1-7">.st0{fill-rule:evenodd;clip-rule:evenodd;}</style><path
     id="polygon1"
     style="clip-rule:evenodd;fill:#000000;fill-rule:evenodd;stroke-width:0;stroke:none;stroke-dasharray:none"
     class="st0"
     d="M 86.944189,64.18434 47.309473,91.303976 A 2.7947609,2.8478879 0 0 1 42.956742,88.939647 V 33.974615 a 2.8185728,2.8721525 0 0 1 4.373257,-2.395714 L 86.923664,58.25911 a 3.4937338,3.5601479 0 0 1 0.02055,5.92523 z m 15.301911,-50.600016 9.43416,9.434152 c 2.48154,2.481546 2.48154,6.546147 0,9.027693 l -5.45513,5.455122 c 2.09648,3.914852 3.69023,8.129201 4.71708,12.568173 h 5.56209 c 3.50839,0 6.3857,2.87731 6.3857,6.385702 v 13.338309 c 0,3.508392 -2.87731,6.385702 -6.3857,6.385702 h -6.46058 c -1.31565,4.342705 -3.1982,8.450091 -5.56209,12.215195 l 4.82404,4.824039 c 2.48155,2.481546 2.48155,6.546147 0,9.027689 l -9.434149,9.43416 c -2.481546,2.48154 -6.546147,2.48154 -9.027692,0 l -5.455123,-5.45513 c -3.914852,2.09648 -8.129201,3.70093 -12.568173,4.71708 v 5.56209 c 0,3.50839 -2.87731,6.3857 -6.385702,6.3857 H 53.085826 c -3.508392,0 -6.385702,-2.87731 -6.385702,-6.3857 v -6.46058 c -4.342705,-1.31565 -8.450091,-3.1982 -12.215195,-5.57278 l -4.824039,4.82404 c -2.481546,2.48154 -6.546147,2.48154 -9.027693,0 l -9.434152,-9.434155 c -2.4815459,-2.481546 -2.4815459,-6.546147 0,-9.027693 L 16.654167,85.37801 C 14.557689,81.463158 12.953241,77.248808 11.937091,72.809837 H 6.3750054 C 2.8773094,72.809837 -1e-7,69.932527 -1e-7,66.424135 V 53.085826 c 0,-3.508392 2.8773095,-6.385702 6.3857018,-6.385702 h 6.4605763 c 1.315647,-4.342705 3.198199,-8.450091 5.562085,-12.215195 L 13.584324,29.66089 c -2.481546,-2.481546 -2.481546,-6.546147 0,-9.027693 l 9.434152,-9.434152 c 2.481546,-2.4815459 6.546147,-2.4815459 9.027693,0 l 5.455122,5.455122 c 3.914852,-2.096478 8.129201,-3.700926 12.568173,-4.717076 V 6.3750054 c 0,-3.497696 2.87731,-6.3750055 6.385702,-6.3750055 h 13.338309 c 3.508392,0 6.385702,2.8773095 6.385702,6.3857018 v 6.4498803 c 4.342705,1.315647 8.450091,3.198199 12.215195,5.562085 l 4.824039,-4.82404 c 2.481546,-2.470849 6.546147,-2.470849 9.027689,0.0107 z M 61.43965,24.130893 c 20.601109,0 37.308758,16.707649 37.308758,37.308757 0,20.601109 -16.707649,37.308758 -37.308758,37.308758 -20.601108,0 -37.308757,-16.707649 -37.308757,-37.308758 0,-20.601108 16.707649,-37.308757 37.308757,-37.308757 z" /></svg>
