<?xml version="1.0" encoding="UTF-8" standalone="no"?>
<svg
   version="1.1"
   id="Layer_1"
   x="0px"
   y="0px"
   viewBox="0 0 122.88 121.61"
   style="enable-background:new 0 0 122.88 121.61"
   xml:space="preserve"
   sodipodi:docname="folder.svg"
   inkscape:version="1.3.2 (091e20e, 2023-11-25, custom)"
   xmlns:inkscape="http://www.inkscape.org/namespaces/inkscape"
   xmlns:sodipodi="http://sodipodi.sourceforge.net/DTD/sodipodi-0.dtd"
   xmlns="http://www.w3.org/2000/svg"
   xmlns:svg="http://www.w3.org/2000/svg"><defs
     id="defs1" /><sodipodi:namedview
     id="namedview1"
     pagecolor="#505050"
     bordercolor="#eeeeee"
     borderopacity="1"
     inkscape:showpageshadow="0"
     inkscape:pageopacity="0"
     inkscape:pagecheckerboard="0"
     inkscape:deskcolor="#505050"
     inkscape:zoom="4.7272248"
     inkscape:cx="83.135458"
     inkscape:cy="52.779381"
     inkscape:window-width="1920"
     inkscape:window-height="1009"
     inkscape:window-x="-8"
     inkscape:window-y="-8"
     inkscape:window-maximized="1"
     inkscape:current-layer="Layer_1" /><style
     type="text/css"
     id="style1">.st0{fill-rule:evenodd;clip-rule:evenodd;}</style><g
     id="g1"
     style="fill:#000000;fill-rule:evenodd;stroke:none"><path
       class="st0"
       d="M73.12,0H88.6v5.17c38.74,8.87,43.17,27.47,20.7,56.79c2.39-29.09-0.54-35.33-20.7-36.68v73.54 c0.04,0.39,0.05,0.78,0.05,1.18c0,9.56-10.03,19.04-22.4,21.18c-12.37,2.14-22.4-3.88-22.4-13.44c0-13.04,17.91-24.36,29.26-20.37 L73.12,0L73.12,0z M5.69,73.78C2.55,73.78,0,71.23,0,68.09c0-3.14,2.55-5.69,5.69-5.69h47.63c3.14,0,5.69,2.55,5.69,5.69 c0,3.14-2.55,5.69-5.69,5.69H5.69L5.69,73.78z M5.69,46.14C2.55,46.14,0,43.59,0,40.44c0-3.14,2.55-5.69,5.69-5.69h47.63 c3.14,0,5.69,2.55,5.69,5.69c0,3.14-2.55,5.69-5.69,5.69H5.69L5.69,46.14z M5.69,18.5C2.55,18.5,0,15.95,0,12.8 c0-3.14,2.55-5.69,5.69-5.69h47.63c3.14,0,5.69,2.55,5.69,5.69c0,3.14-2.55,5.69-5.69,5.69H5.69L5.69,18.5z"
       id="path1"
       style="fill:#000000;fill-rule:evenodd;stroke:none" /></g></svg>
