<?xml version="1.0" encoding="UTF-8" standalone="no"?>
<svg
   shape-rendering="geometricPrecision"
   text-rendering="geometricPrecision"
   image-rendering="optimizeQuality"
   fill-rule="evenodd"
   clip-rule="evenodd"
   viewBox="0 0 443 511.62"
   version="1.1"
   id="svg1"
   sodipodi:docname="time.svg"
   inkscape:version="1.3.2 (091e20e, 2023-11-25, custom)"
   xml:space="preserve"
   xmlns:inkscape="http://www.inkscape.org/namespaces/inkscape"
   xmlns:sodipodi="http://sodipodi.sourceforge.net/DTD/sodipodi-0.dtd"
   xmlns="http://www.w3.org/2000/svg"
   xmlns:svg="http://www.w3.org/2000/svg"><defs
     id="defs1" /><sodipodi:namedview
     id="namedview1"
     pagecolor="#505050"
     bordercolor="#eeeeee"
     borderopacity="1"
     inkscape:showpageshadow="0"
     inkscape:pageopacity="0"
     inkscape:pagecheckerboard="0"
     inkscape:deskcolor="#505050"
     inkscape:zoom="1.1236422"
     inkscape:cx="243.84987"
     inkscape:cy="194.45692"
     inkscape:window-width="1920"
     inkscape:window-height="1009"
     inkscape:window-x="-8"
     inkscape:window-y="-8"
     inkscape:window-maximized="1"
     inkscape:current-layer="svg1" /><path
     fill-rule="nonzero"
     d="m 290.07045,224.64846 c 0,-17.1 13.87,-30.97 30.97,-30.97 17.11,0 30.98,13.87 30.98,30.97 v 177.4 l 37.45,-40.31 c 11.63,-12.5 31.19,-13.2 43.68,-1.57 12.49,11.62 13.19,31.18 1.57,43.68 l -91.05,97.98 -2.06,1.94 c -12.69,11.35 -32.2,10.26 -43.55,-2.43 l -91.05,-101.47 c -11.35,-12.69 -10.26,-32.2 2.43,-43.55 12.68,-11.36 32.19,-10.27 43.55,2.42 l 37.08,41.33 z m -236.239996,-71.77 c -11.35,12.69 -30.86,13.78 -43.55,2.43 -12.6899996,-11.36 -13.7799996,-30.87 -2.4199996,-43.56 L 98.900454,10.278456 C 110.26045,-2.4115442 129.77045,-3.5015442 142.45045,7.8584558 l 2.02,1.97 91.09,97.9500042 c 11.63,12.49 10.93,32.05 -1.57,43.67 -12.49,11.63 -32.05,10.93 -43.67,-1.57 l -37.46,-40.31 v 170.52 c 0,17.11 -13.87,30.97 -30.97,30.97 -17.1,0 -30.969996,-13.86 -30.969996,-30.97 v -168.54 z"
     id="path1"
     style="fill:#ffffff" /><style
     type="text/css"
     id="style1">.st0{fill-rule:evenodd;clip-rule:evenodd;}</style><style
     type="text/css"
     id="style1-7">.st0{fill-rule:evenodd;clip-rule:evenodd;}</style><path
     id="path1-2"
     style="fill:#ffffff;fill-opacity:1;fill-rule:evenodd;stroke:none;stroke-width:1.20871;stroke-opacity:1"
     d="m 135.35495,325.37711 c -11.7186,0.0645 -23.44114,-0.0196 -35.15982,0.0448 -4.141581,0.21444 -7.547861,4.26954 -7.127821,8.38167 0.0859,2.9287 -0.50151,6.19626 1.32362,8.7434 1.64224,2.44168 4.68175,3.71364 7.579951,3.39951 1.98635,0 3.9727,0 5.95904,0 -0.0192,1.42006 0.0382,2.91063 -0.0283,4.28715 -10.124311,1.37887 -19.914901,5.12396 -28.374051,10.8548 -2.05634,-1.87441 -3.96123,-3.9453 -6.20128,-5.59972 -3.40535,-2.17092 -8.31224,-1.25389 -10.76942,1.93363 -1.69482,1.9102 -3.80394,3.53779 -5.00343,5.83015 -1.65625,3.38787 -0.55552,7.78475 2.43154,10.06279 1.12614,1.05827 2.25228,2.11653 3.37842,3.1748 -9.505,12.62359 -14.26994,28.7012 -13.19331,44.46587 0.94109,15.02173 7.14533,29.64883 17.32131,40.74348 10.91149,12.02337 26.31263,19.89683 42.484081,21.51514 15.2146,1.62483 30.95952,-2.12017 43.73907,-10.55688 14.04971,-9.178 24.47164,-23.78355 28.40202,-40.11554 4.08576,-16.60449 1.56426,-34.76915 -7.1135,-49.52914 -0.99055,-1.77061 -2.1923,-3.49464 -3.27576,-5.15369 1.64696,-1.77143 3.50602,-3.38996 4.84902,-5.41324 1.96804,-3.40763 1.00208,-8.09638 -2.08237,-10.51494 -1.91634,-1.72287 -3.53383,-3.8909 -5.87364,-5.06529 -3.37959,-1.61656 -7.72324,-0.50621 -10.006,2.4417 -0.89839,0.90386 -1.76176,1.89047 -2.66165,2.7606 -8.14759,-5.81732 -17.60729,-9.78479 -27.4746,-11.48749 0,-1.54709 0,-3.09418 0,-4.64127 2.8521,-0.027 5.72186,0.12574 8.56205,-0.13216 3.89218,-0.63042 6.753,-4.61275 6.29776,-8.49776 -0.0544,-2.89504 0.46599,-6.13434 -1.39164,-8.6202 -1.48795,-2.08789 -4.02529,-3.37591 -6.59126,-3.31215 z m -18.32662,45.57696 c 10.73278,-0.0288 21.43115,3.86435 29.56322,10.88358 8.74043,7.36637 14.53101,18.12554 15.77434,29.49599 0.28383,2.36602 0.3574,5.0177 0.263,7.23472 -0.41295,10.93225 -4.97896,21.62208 -12.56374,29.50191 -7.81699,8.29772 -18.85586,13.43972 -30.23858,14.07545 -11.23475,0.72839 -22.696141,-2.87789 -31.416271,-10.01581 -8.07374,-6.45611 -13.82724,-15.7297 -15.98413,-25.84318 -0.42897,-1.89017 -0.73232,-4.08763 -0.88038,-5.84392 -0.94305,-11.15517 2.32459,-22.63455 9.18185,-31.50673 7.5646,-9.97981 19.377941,-16.63319 31.866161,-17.7627 1.4731,-0.14903 2.95433,-0.20854 4.43453,-0.21931 z m -0.10383,18.03389 c -2.17264,0.14086 -4.37978,-0.17813 -6.53225,0.19831 -3.14592,0.75254 -5.39668,4.005 -5.02371,7.21309 0,11.68783 0,23.37567 0,35.06351 10.25698,-0.0186 20.51845,0.0473 30.7726,-0.0426 3.51293,-0.32871 6.24021,-3.85857 5.82126,-7.33578 -0.1187,-2.45683 0.40875,-5.07974 -0.6441,-7.39303 -1.22111,-2.59251 -4.20139,-4.06841 -7.01053,-3.73474 -3.47931,0 -6.9586,0 -10.4379,0 -0.023,-6.09011 0.0694,-12.18598 -0.0637,-18.27233 -0.38739,-3.30981 -3.5932,-5.84999 -6.88163,-5.69652 z" /></svg>
